<?xml version="1.0" encoding="utf-8"?>
<!-- Generator: Adobe Illustrator 24.0.1, SVG Export Plug-In . SVG Version: 6.00 Build 0)  -->
<svg version="1.1" id="Line_Expand" xmlns="http://www.w3.org/2000/svg" xmlns:xlink="http://www.w3.org/1999/xlink" x="0px"
	 y="0px" viewBox="0 0 512 512" style="enable-background:new 0 0 512 512;" xml:space="preserve">
<style type="text/css">
	.st0{fill:url(#SVGID_1_);}
	.st1{fill:url(#SVGID_2_);}
	.st2{fill:url(#SVGID_3_);}
	.st3{fill:url(#SVGID_4_);}
	.st4{fill:url(#SVGID_5_);}
	.st5{fill:url(#SVGID_6_);}
	.st6{fill:url(#SVGID_7_);}
	.st7{fill:url(#SVGID_8_);}
	.st8{fill:url(#SVGID_9_);}
	.st9{fill:url(#SVGID_10_);}
	.st10{fill:url(#SVGID_11_);}
	.st11{fill:url(#SVGID_12_);}
	.st12{fill:url(#SVGID_13_);}
	.st13{fill:url(#SVGID_14_);}
	.st14{fill:url(#SVGID_15_);}
	.st15{fill:url(#SVGID_16_);}
	.st16{fill:url(#SVGID_17_);}
	.st17{fill:url(#SVGID_18_);}
	.st18{fill:url(#SVGID_19_);}
	.st19{fill:url(#SVGID_20_);}
	.st20{fill:url(#SVGID_21_);}
	.st21{fill:url(#SVGID_22_);}
	.st22{fill:url(#SVGID_23_);}
	.st23{fill:url(#SVGID_24_);}
	.st24{fill:url(#SVGID_25_);}
	.st25{fill:url(#SVGID_26_);}
	.st26{fill:url(#SVGID_27_);}
</style>
<linearGradient id="SVGID_1_" gradientUnits="userSpaceOnUse" x1="16" y1="376" x2="496" y2="376">
	<stop  offset="0" style="stop-color:#E29A22"/>
	<stop  offset="0.6061" style="stop-color:#FED86F"/>
</linearGradient>
<path class="st0" d="M480,368h-16v-64c0-8.8-7.2-16-16-16h-80c-46.6,0-89.5,25.4-112,66.2c-22.5-40.8-65.4-66.1-112-66.2H64
	c-8.8,0-16,7.2-16,16v64H32c-8.8,0-16,7.2-16,16v64c0,8.8,7.2,16,16,16h448c8.8,0,16-7.2,16-16v-64C496,375.2,488.8,368,480,368z
	 M368,320h64v48h-72.4c-31.6,0-62.2,11.4-86.1,32.1C281.2,353.9,321.2,320.1,368,320z M80,320h64c46.8,0.1,86.8,33.9,94.6,80.1
	c-23.9-20.8-54.5-32.2-86.1-32.1H80V320z M48,432v-32h104.4c27.8-0.1,54.4,11.5,73.3,32H48z M464,432H286.2
	c18.9-20.5,45.5-32.1,73.3-32H464V432z"/>
<linearGradient id="SVGID_2_" gradientUnits="userSpaceOnUse" x1="392.4149" y1="187.9975" x2="465.9971" y2="187.9975">
	<stop  offset="0" style="stop-color:#E29A22"/>
	<stop  offset="0.6061" style="stop-color:#FED86F"/>
</linearGradient>
<path class="st1" d="M408.4,216c2.8,0,5.6-0.7,8-2.1l41.6-24c7.7-4.4,10.3-14.2,5.9-21.9c-4.4-7.7-14.2-10.3-21.9-5.9l-41.6,24
	c-7.7,4.4-10.3,14.2-5.9,21.9C397.4,213,402.7,216,408.4,216z"/>
<linearGradient id="SVGID_3_" gradientUnits="userSpaceOnUse" x1="327.994" y1="114.7947" x2="384.0051" y2="114.7947">
	<stop  offset="0" style="stop-color:#E29A22"/>
	<stop  offset="0.6061" style="stop-color:#FED86F"/>
</linearGradient>
<path class="st2" d="M336,149.4c7.7,4.4,17.4,1.8,21.9-5.9l24-41.6c4.4-7.7,1.8-17.4-5.9-21.9c-7.7-4.4-17.4-1.8-21.9,5.9l-24,41.6
	C325.7,135.2,328.3,145,336,149.4C336,149.4,336,149.4,336,149.4z"/>
<linearGradient id="SVGID_4_" gradientUnits="userSpaceOnUse" x1="240" y1="88" x2="272" y2="88">
	<stop  offset="0" style="stop-color:#E29A22"/>
	<stop  offset="0.6061" style="stop-color:#FED86F"/>
</linearGradient>
<path class="st3" d="M256,128c8.8,0,16-7.2,16-16V64c0-8.8-7.2-16-16-16c-8.8,0-16,7.2-16,16v48C240,120.8,247.2,128,256,128z"/>
<linearGradient id="SVGID_5_" gradientUnits="userSpaceOnUse" x1="127.9949" y1="114.7928" x2="184.0051" y2="114.7928">
	<stop  offset="0" style="stop-color:#E29A22"/>
	<stop  offset="0.6061" style="stop-color:#FED86F"/>
</linearGradient>
<path class="st4" d="M154.1,143.6c4.4,7.7,14.2,10.3,21.9,5.9c7.7-4.4,10.3-14.2,5.9-21.9l-24-41.6c-4.4-7.7-14.2-10.3-21.9-5.9
	c-7.7,4.4-10.3,14.2-5.9,21.9L154.1,143.6z"/>
<linearGradient id="SVGID_6_" gradientUnits="userSpaceOnUse" x1="46.0029" y1="188" x2="119.5827" y2="188">
	<stop  offset="0" style="stop-color:#E29A22"/>
	<stop  offset="0.6061" style="stop-color:#FED86F"/>
</linearGradient>
<path class="st5" d="M54,189.9l41.6,24c7.7,4.4,17.4,1.8,21.9-5.9c4.4-7.7,1.8-17.4-5.9-21.9l-41.6-24c-7.7-4.4-17.4-1.8-21.9,5.9
	C43.7,175.7,46.4,185.4,54,189.9z"/>
<linearGradient id="SVGID_7_" gradientUnits="userSpaceOnUse" x1="235.2137" y1="48.5631" x2="276.4164" y2="48.5631">
	<stop  offset="0" style="stop-color:#E29A22"/>
	<stop  offset="0.6061" style="stop-color:#FED86F"/>
</linearGradient>
<path class="st6" d="M274.6,64H237c-1,0-1.8-1.1-1.8-2.5v-26c0-1.4,0.8-2.5,1.8-2.5h12.5c1,0,1.8,1.1,1.8,2.5v6.2h9v-6.2
	c0-1.4,0.8-2.5,1.8-2.5h12.5c1,0,1.8,1.1,1.8,2.5v26C276.4,62.9,275.6,64,274.6,64L274.6,64z"/>
<linearGradient id="SVGID_8_" gradientUnits="userSpaceOnUse" x1="112.0672" y1="82.7609" x2="161.5966" y2="82.7609">
	<stop  offset="0" style="stop-color:#E29A22"/>
	<stop  offset="0.6061" style="stop-color:#FED86F"/>
</linearGradient>
<path class="st7" d="M160.9,86.7l-32.5,18.9c-0.9,0.5-2.1-0.1-2.8-1.2l-13-22.4c-0.7-1.2-0.5-2.5,0.3-3l10.9-6.3
	c0.9-0.5,2.1,0.1,2.8,1.2l3.1,5.4l7.8-4.5l-3.1-5.4c-0.7-1.2-0.5-2.5,0.3-3l10.9-6.3c0.9-0.5,2.1,0.1,2.8,1.2l13,22.4
	C161.8,84.8,161.7,86.2,160.9,86.7L160.9,86.7z"/>
<linearGradient id="SVGID_9_" gradientUnits="userSpaceOnUse" x1="350.3601" y1="81.9241" x2="399.8895" y2="81.9241">
	<stop  offset="0" style="stop-color:#E29A22"/>
	<stop  offset="0.6061" style="stop-color:#FED86F"/>
</linearGradient>
<path class="st8" d="M351.1,85.8l32.5,18.9c0.9,0.5,2.1-0.1,2.8-1.2l13-22.4c0.7-1.2,0.5-2.5-0.3-3l-10.9-6.3
	c-0.9-0.5-2.1,0.1-2.8,1.2l-3.1,5.4l-7.8-4.5l3.1-5.4c0.7-1.2,0.5-2.5-0.3-3l-10.9-6.3c-0.9-0.5-2.1,0.1-2.8,1.2l-13,22.4
	C350.1,84,350.2,85.3,351.1,85.8L351.1,85.8z"/>
<linearGradient id="SVGID_10_" gradientUnits="userSpaceOnUse" x1="25.3043" y1="168.0515" x2="71.346" y2="168.0515">
	<stop  offset="0" style="stop-color:#E29A22"/>
	<stop  offset="0.6061" style="stop-color:#FED86F"/>
</linearGradient>
<path class="st9" d="M71.2,159.6l-19,32.5c-0.5,0.8-1.9,1-3,0.3l-22.4-13.1c-1.2-0.7-1.7-1.9-1.2-2.8l6.3-10.8c0.5-0.8,1.9-1,3-0.3
	l5.3,3.1l4.5-7.7l-5.3-3.1c-1.2-0.7-1.7-1.9-1.2-2.8l6.3-10.8c0.5-0.8,1.9-1,3-0.3l22.4,13.1C71.1,157.5,71.7,158.8,71.2,159.6
	L71.2,159.6z"/>
<linearGradient id="SVGID_11_" gradientUnits="userSpaceOnUse" x1="440.9791" y1="168.0515" x2="487.0209" y2="168.0515">
	<stop  offset="0" style="stop-color:#E29A22"/>
	<stop  offset="0.6061" style="stop-color:#FED86F"/>
</linearGradient>
<path class="st10" d="M441.2,159.6l19,32.5c0.5,0.8,1.9,1,3,0.3l22.4-13.1c1.2-0.7,1.7-1.9,1.2-2.8l-6.3-10.8c-0.5-0.8-1.9-1-3-0.3
	l-5.3,3.1l-4.5-7.7l5.3-3.1c1.2-0.7,1.7-1.9,1.2-2.8l-6.3-10.8c-0.5-0.8-1.9-1-3-0.3l-22.4,13.1
	C441.2,157.5,440.7,158.8,441.2,159.6L441.2,159.6z"/>
<g>
	<linearGradient id="SVGID_12_" gradientUnits="userSpaceOnUse" x1="177.4271" y1="264.0308" x2="186.8372" y2="264.0308">
		<stop  offset="0" style="stop-color:#E29A22"/>
		<stop  offset="0.6061" style="stop-color:#FED86F"/>
	</linearGradient>
	<path class="st11" d="M186.1,265.9c0.5-1.5,0.7-2.5,0.8-3.2c0-0.6-2.3-1.9-6.8-4c-0.3,0-0.8,0.8-1.6,2.7c-0.7,1.8-1.1,2.8-1.1,3.1
		c0,0.6,2.3,2.2,6.9,4.7C185,268.5,185.6,267.4,186.1,265.9z"/>
	<linearGradient id="SVGID_13_" gradientUnits="userSpaceOnUse" x1="173.5001" y1="191.0072" x2="202.9315" y2="191.0072">
		<stop  offset="0" style="stop-color:#E29A22"/>
		<stop  offset="0.6061" style="stop-color:#FED86F"/>
	</linearGradient>
	<path class="st12" d="M180,202.4c4-1.2,7.9-3.4,11.9-6.4c1.1-0.9,2.4-2.9,3.9-5.9c1.4-6.1,2.4-9.2,3.3-9.2h0.8
		c0.1,0,0.7,0.5,1.8,1.6h0.1c0.7-0.6,1.1-1.3,1.1-2.2V180c-0.9-1.5-1.8-2.2-2.6-2.2c-2.3,0-4.1,3.3-5.4,10h-0.1v-0.5
		c-1.4-5.4-3.5-8.1-6.1-8.1h-0.6c-0.9,0.7-1.5,1.7-1.9,2.9v0.2c1.2,1.4,2.1,2,2.7,2s0.9-0.2,0.9-0.5h0.8c2.3,3.6,3.4,6.3,3.4,8.1
		c-0.9,0.7-1.3,1.2-1.3,1.3c-2.3,1.8-5.9,3.9-10.8,6.3c-4.9,2.5-7.7,4-8.4,4.5l0.2,0.2C173.9,204.3,176.1,203.7,180,202.4z"/>
	<linearGradient id="SVGID_14_" gradientUnits="userSpaceOnUse" x1="151.2298" y1="214.165" x2="241.1195" y2="214.165">
		<stop  offset="0" style="stop-color:#E29A22"/>
		<stop  offset="0.6061" style="stop-color:#FED86F"/>
	</linearGradient>
	<path class="st13" d="M200,246.6c10.4-5.1,16.1-8.8,17.1-11c1.3-3,1.9-5.4,1.9-7.2c0-1.8-0.3-3.2-0.8-4.2c-0.6-1-2-1.8-4.3-2.5
		c-4.4-2.3-7.4-3.7-9-4.1c10.8-2,17.4-3.1,19.8-3.3c2.1,0,4.5-0.7,7.1-2.2c2.6-1.5,4.5-2.9,5.6-4.2c2.9-3.4,4.1-6.9,3.6-10.6
		c-0.3-2.5-2-5.4-4.9-8.7c-2.9-3.4-4.5-5.5-4.9-6.4c0.7,0.1,1.5,0.2,2.3,0.2c0.8,0,3.1,1.8,3.1,1.4c0-0.4-2.3-2.9-3.2-3.6
		c-2.5-1.9-4.7-3.4-6.4-4.6c-0.5-0.5-0.9-0.2-1.1,0.9c-0.3,2.2-0.5,4-0.6,5.3c-0.1,0.4,0.2,0.6,1,0.6c1.2,3.6,3.4,7.3,6.7,11
		c3.3,3.7,5.1,6.2,5.6,7.4c0.3,0.7-1.2,1.9-4.4,3.6c-3.2,1.8-6.4,2.7-9.5,2.7v0.7c-5.1,0.6-9.7,1.4-14,2.5
		c-7.2,1.3-11.9,2.6-14.1,4.1c-0.4,0.4-0.9,1.4-1.4,3.2c-0.5,1.8-0.8,2.7-0.8,3c0.1,1.3,1.1,2.3,3.1,3c0.7,0.3,4.5,1.3,11.3,3.1
		c4.4,2.2,6.6,3.8,6.6,4.8c0,0.5-2,1.9-6,4.2c-4,2.3-8.3,4.4-12.9,6.3c-8.2,3.4-14.9,5.1-20.1,5.1c-5.2,0-9.6-1.6-13.1-4.7
		c-3.5-3.1-5.2-7.1-5.3-12c0-4.8,0.9-9.3,2.6-13.5c0.4-1,0.8-2.6,1.3-5c0.5-1.6,0.6-2.4,0.3-2.4c-0.3,0-0.9,1-2,3.1
		c-1.1,1.7-2.2,2.5-3.1,2.5c-1.9,0-2.8-2-2.8-5.9c0-2.6,9.7-25.7,12.5-35.1l-8.7,17.2c-4.4,7.9-6.6,14.9-6.6,21v3.1
		c0,0.6,0.1,1.5,0.2,2.5c0.7,2.5,2.1,3.8,3.9,3.8h0.9c0.2,0,0.4,0,0.6-0.1c-0.9,3.7-1.3,7.5-1.3,11.4c0,8.5,3,14.5,9.1,18.2
		c3.5,2.1,7.2,3.2,11.1,3.2C181.5,254.3,189.6,251.7,200,246.6z"/>
	<linearGradient id="SVGID_15_" gradientUnits="userSpaceOnUse" x1="166.5609" y1="265.4608" x2="176.3909" y2="265.4608">
		<stop  offset="0" style="stop-color:#E29A22"/>
		<stop  offset="0.6061" style="stop-color:#FED86F"/>
	</linearGradient>
	<path class="st14" d="M173.5,263c-1.9-1.1-3.4-2.2-4.4-3.2c-1.7,3.7-2.5,5.9-2.5,6.5s1.2,1.6,3.5,2.9c2.3,1.4,3.6,2,4,2
		c0.7,0,1.2-0.7,1.7-2c0.5-1.4,0.7-2.4,0.7-3.3C176.4,265,175.4,264.1,173.5,263z"/>
	<linearGradient id="SVGID_16_" gradientUnits="userSpaceOnUse" x1="215.4365" y1="167.0703" x2="225.2105" y2="167.0703">
		<stop  offset="0" style="stop-color:#E29A22"/>
		<stop  offset="0.6061" style="stop-color:#FED86F"/>
	</linearGradient>
	<path class="st15" d="M217.7,170c1.5,0.8,3.3,1.7,5.4,2.8c1.4-1.8,2.1-3.8,2.1-6.1c0-0.7-1.1-1.6-3.2-2.6c-2.1-1-3.7-1.9-4.6-2.7
		c-1.3,4.4-1.9,6.6-1.9,6.5C215.4,168.5,216.2,169.2,217.7,170z"/>
	<linearGradient id="SVGID_17_" gradientUnits="userSpaceOnUse" x1="183.7537" y1="245.1063" x2="245.6212" y2="245.1063">
		<stop  offset="0" style="stop-color:#E29A22"/>
		<stop  offset="0.6061" style="stop-color:#FED86F"/>
	</linearGradient>
	<path class="st16" d="M237.9,220.7c-2.3-2.4-4.3-3.6-5.9-3.6s-3.4,1.3-5.2,3.8c-1.8,2.6-2.7,5.3-2.8,8.2c0,1,0.4,2.1,1.2,3.1
		c0.9,1,1.9,1.8,3.2,2.3c1.2,0.6,5.2,0.8,11.7,0.8c0.3,0.6,0.6,1.4,0.7,2.2c-0.1,1.3-4.2,4.8-12.4,10.5
		c-8.2,5.7-15.8,10.3-22.8,13.9c-7,3.6-13.4,6.5-19.2,8.8c-1.9,0.8-2.9,1.5-2.9,1.9c0,0.2,0.3,0.3,0.9,0.3c0.6,0,1.6-0.2,2.8-0.7
		c6-2.2,12.8-3.7,20.4-4.7c3.7-1.5,8.5-4.2,14.4-8.1c5.9-3.9,11.2-8,15.9-12.3c2.3-2.6,3.8-5.7,4.5-9.5c0.2-1.2,0.4-2,0.5-2.4
		c0.9,0,1.7,0,2.4-0.1v-7.1c-0.9,0-1.9,0.1-3.1,0.1C241.8,225.6,240.2,223,237.9,220.7z M228.6,227.2c-0.1-1.7,0.9-2.6,3-2.5
		c1,0.1,1.8,0.5,2.3,1.4c0.6,0.9,1,1.5,1.4,2C231.4,228,229.2,227.7,228.6,227.2z"/>
	<linearGradient id="SVGID_18_" gradientUnits="userSpaceOnUse" x1="236.1072" y1="262.0562" x2="242.346" y2="262.0562">
		<stop  offset="0" style="stop-color:#E29A22"/>
		<stop  offset="0.6061" style="stop-color:#FED86F"/>
	</linearGradient>
	<path class="st17" d="M242,264c-0.9,2.2-1.8,3.3-2.7,3.3c-1.1,0-1.7-0.9-1.7-2.8c0-1.9,0.8-5.5,2.5-10.9H240
		c-2.6,4.4-3.8,8.3-3.8,11.7v1.7c0,0.3,0,0.8,0.1,1.4c0.5,1.4,1.2,2.1,2.3,2.1h0.5c1.5,0,2.6-2,3.3-6l-0.2-0.5H242z"/>
	<linearGradient id="SVGID_19_" gradientUnits="userSpaceOnUse" x1="264.7978" y1="172.7632" x2="288.0148" y2="172.7632">
		<stop  offset="0" style="stop-color:#E29A22"/>
		<stop  offset="0.6061" style="stop-color:#FED86F"/>
	</linearGradient>
	<path class="st18" d="M265.4,186.6c1.5,0,4.6-2.1,9.2-6.3c4.6-4.2,7.6-7.6,9-10.2c1.6,0.8,2.7,1.3,3.1,1.5c0.4,0.2,0.8-0.1,1.1-0.9
		c0.3-0.8,0.3-1.4,0.1-2c-1-0.9-1.9-1.6-2.8-2c0.5-1.2,0.7-2.4,0.7-3.5c0-2.8-1.2-4.2-3.5-4.2c-0.8,0-1.8,0.7-2.9,2.2
		c-1.1,1.5-1.7,2.8-1.7,3.8c0,1,0.4,2,1.3,2.8c1,0.6,1.9,1.2,2.9,1.8c-1,2.1-3.4,4.8-7.2,8.2c-3.8,3.3-7.1,6.2-10,8.6
		C264.9,186.5,265.1,186.6,265.4,186.6z M280.3,163.3c0.1-0.8,0.6-1.1,1.5-1.1c1.1,0,1.7,0.9,1.7,2.7c0,0.4-0.1,0.8-0.2,1.2
		C281.2,165,280.2,164,280.3,163.3z"/>
	<linearGradient id="SVGID_20_" gradientUnits="userSpaceOnUse" x1="253.1079" y1="207.67" x2="258.1511" y2="207.67">
		<stop  offset="0" style="stop-color:#E29A22"/>
		<stop  offset="0.6061" style="stop-color:#FED86F"/>
	</linearGradient>
	<path class="st19" d="M255,214.5h0.4c1.2,0,2.1-1.7,2.7-5l-0.2-0.3h-0.1c-0.8,1.6-1.5,2.4-2.1,2.4c-0.9,0-1.4-0.7-1.4-2.2
		s0.7-4.3,2-8.6h-0.2c-2.1,3.5-3.1,6.7-3.1,9.4v1.4C253.1,213.6,253.7,214.5,255,214.5z"/>
	<linearGradient id="SVGID_21_" gradientUnits="userSpaceOnUse" x1="295.9474" y1="183.239" x2="303.538" y2="183.239">
		<stop  offset="0" style="stop-color:#E29A22"/>
		<stop  offset="0.6061" style="stop-color:#FED86F"/>
	</linearGradient>
	<path class="st20" d="M298.8,193.7h0.6c1.8,0,3.1-2.6,4.1-7.7l-0.3-0.3h-0.2c-1.2,2.4-2.3,3.6-3.3,3.6c-1.4,0-2.1-1.1-2.1-3.4
		c0-2.3,1-6.7,3.1-13.2h-0.3c-3.1,5.4-4.6,10.3-4.6,14.5v2.1c0,0.5,0.1,1,0.2,1.8C296.6,192.8,297.5,193.7,298.8,193.7z"/>
	<linearGradient id="SVGID_22_" gradientUnits="userSpaceOnUse" x1="260.1268" y1="254.0225" x2="293.2961" y2="254.0225">
		<stop  offset="0" style="stop-color:#E29A22"/>
		<stop  offset="0.6061" style="stop-color:#FED86F"/>
	</linearGradient>
	<path class="st21" d="M291.1,243.1H291c-1.7,0-4.3,2-7.8,5.9h-2.6c-2,0-4.7,1.6-8.1,4.7c-3.5,4.1-5.8,6.6-6.9,7.4
		c-3.7,2.4-5.5,3.7-5.5,3.8v0.2c1.2-0.2,1.8-0.4,1.8-0.5c1.6,0,3.6-1.2,6.1-3.7c4.7-5.4,8.8-8.2,12.1-8.2l3.4,0.7
		c1.4,0,2.6-0.2,3.7-0.7c4-1.7,6-4,6-6.8v-0.4C293.3,244,292.6,243.2,291.1,243.1z M291.7,247.1c-2.3,1.6-4.6,2.4-6.9,2.4h-0.3
		l-0.3-0.1c2.3-2.3,4.1-3.4,5.3-3.4h0.6c0.8,0,1.3,0.3,1.7,0.9L291.7,247.1z"/>
	<linearGradient id="SVGID_23_" gradientUnits="userSpaceOnUse" x1="321.362" y1="172.7632" x2="344.579" y2="172.7632">
		<stop  offset="0" style="stop-color:#E29A22"/>
		<stop  offset="0.6061" style="stop-color:#FED86F"/>
	</linearGradient>
	<path class="st22" d="M322,186.6c1.5,0,4.6-2.1,9.2-6.3c4.6-4.2,7.6-7.6,9-10.2c1.6,0.8,2.7,1.3,3.1,1.5c0.4,0.2,0.8-0.1,1.1-0.9
		c0.3-0.8,0.3-1.4,0.1-2c-1-0.9-1.9-1.6-2.8-2c0.5-1.2,0.7-2.4,0.7-3.5c0-2.8-1.2-4.2-3.5-4.2c-0.8,0-1.8,0.7-2.9,2.2
		c-1.1,1.5-1.7,2.8-1.7,3.8c0,1,0.4,2,1.3,2.8c1,0.6,1.9,1.2,2.9,1.8c-1,2.1-3.4,4.8-7.2,8.2c-3.8,3.3-7.1,6.2-10,8.6
		C321.5,186.5,321.7,186.6,322,186.6z M336.9,163.3c0.1-0.8,0.6-1.1,1.5-1.1c1.1,0,1.7,0.9,1.7,2.7c0,0.4-0.1,0.8-0.2,1.2
		C337.8,165,336.8,164,336.9,163.3z"/>
	<linearGradient id="SVGID_24_" gradientUnits="userSpaceOnUse" x1="333.5355" y1="191.4012" x2="338.5787" y2="191.4012">
		<stop  offset="0" style="stop-color:#E29A22"/>
		<stop  offset="0.6061" style="stop-color:#FED86F"/>
	</linearGradient>
	<path class="st23" d="M336.7,184.5c-2.1,3.6-3.1,6.7-3.1,9.5v1.4c0,1.9,0.6,2.9,1.9,2.9h0.4c1.2,0,2.1-1.7,2.7-5l-0.2-0.2h-0.1
		c-0.8,1.6-1.5,2.4-2.1,2.4c-0.9,0-1.4-0.7-1.4-2.2c0-1.5,0.7-4.4,2-8.7H336.7z"/>
	<linearGradient id="SVGID_25_" gradientUnits="userSpaceOnUse" x1="335.2512" y1="243.2348" x2="351.3683" y2="243.2348">
		<stop  offset="0" style="stop-color:#E29A22"/>
		<stop  offset="0.6061" style="stop-color:#FED86F"/>
	</linearGradient>
	<path class="st24" d="M342.2,249.6h-0.9l-0.3,0.2c0-0.1,0-0.2-0.1-0.2h-0.8c-2.1,0-3.2-0.6-3.2-1.8v-0.1c0-0.7,0.4-1.4,1.1-2.3
		c4.8-4.6,7.2-7.7,7.2-9.3s-1.6-2.4-4.7-2.4c-1.4,0-2,0.1-2,0.3c-1.1,0-2.1,1.2-3.1,3.5c0,0.1,0,0.2,0.1,0.4
		c1.2-0.4,2.5-0.7,4.1-0.7c1.5,0,2.5,0.3,3,1l-2,2.2c-3.5,3.2-5.3,5.9-5.3,8.1v1.1c0,1.6,1.2,2.7,3.7,3.2h1.8
		c3.9,0,7.4-1.5,10.6-4.6l-0.1-0.3C347.3,249,344.3,249.6,342.2,249.6z"/>
	<linearGradient id="SVGID_26_" gradientUnits="userSpaceOnUse" x1="245.6216" y1="224.1763" x2="360.7702" y2="224.1763">
		<stop  offset="0" style="stop-color:#E29A22"/>
		<stop  offset="0.6061" style="stop-color:#FED86F"/>
	</linearGradient>
	<path class="st25" d="M360.7,212.7c-5.1-0.5-12.2-2-21.3-4.5c-9.1-2.5-14.7-3.6-16.7-3.5c-3.5,0.2-6.3,1.6-8.6,4.3
		c-2.3,2.7-3.4,5.8-3.4,9.4c0,1.4,1,4.5,2.9,9.4c-2.5,0.2-4.7,0.4-6.5,0.4v0c-2.3,0.1-5.1,0.4-8.3,0.9l-4.9,0.4c6-2.6,9-7.3,9-14
		c0-2.6-1.6-4.9-4.6-6.9c-3-2.1-6.3-3.1-9.8-3.1c-4.7,0-9.3,2.7-13.8,8.1c-2.6,3.1-4.6,5.8-6,8.1c-1.4,2.2-2.7,4.5-3.9,6.7
		c-2.9-1.7-4.6-4.1-5.2-7.2v-1.8c0-0.9-0.2-1.3-0.5-1.3c-0.2,0-1,0.9-2.4,2.8c-1.5,1.9-2.7,3.3-3.7,4.2c-2.4,2.2-4.8,3.3-7.3,3.3
		v7.3c2.7,0,4.9-0.6,6.4-1.9c1.6-1.2,3.2-3.6,4.9-7.2c2.2,4.1,4,6.7,5.2,7.8c-0.7,2.1-1,3.6-0.8,4.4c0.1,0.8,0.4,0.7,0.9-0.2
		c0.9-1.7,1.6-2.9,2.1-3.6c3.8,1.9,8.2,2.3,13.2,1.2c1.4-0.3,3.3-0.9,5.7-1.8c0.9,1.6,1.7,2.4,2.2,2.4c8.4-0.5,15.6-0.9,21.9-1.2v0
		c3,0,6-0.2,8.8-0.7c0.2,0.9,0.3,1.9,0.3,2.9c-0.1,1-2.6,6.2-2,6.2c0.3,0,3.4-5.2,3.8-6.1c0.4-0.9,0.6-2,0.5-3.4
		c6.6-1.3,14.2-4.2,23-8.5c8.7-4.4,14.3-6.5,16.8-6.3c0.4,0,0.9-1.1,1.6-3.3C360.7,213.9,360.9,212.7,360.7,212.7z M275.9,229.5
		c-3.6,0-6.3-0.1-8.1-0.4c3-5,5.3-8.4,6.8-10.1c4.1-4.6,8.5-6.9,13.3-6.9c1.7,0,3.8,0.7,6.3,2c2.5,1.3,4.3,3,5.4,5
		c-2.5,2.5-6.2,4.9-11,7.1C283.7,228.4,279.5,229.5,275.9,229.5z M317.4,227c-1.8-4.3-3-6.9-3.6-7.9c-0.6-1-0.8-1.6-0.8-1.8
		c0-0.9,0.6-2,1.8-3.3c1.2-1.2,2.3-1.9,3.4-2c1.1-0.1,2.1-0.2,3.2-0.2c3.6,0,8.1,0.8,13.5,2.5c5.4,1.7,9,2.7,10.9,2.9
		C336,222.3,326.6,225.5,317.4,227z"/>
	<linearGradient id="SVGID_27_" gradientUnits="userSpaceOnUse" x1="320.0186" y1="246.0858" x2="325.1133" y2="246.0858">
		<stop  offset="0" style="stop-color:#E29A22"/>
		<stop  offset="0.6061" style="stop-color:#FED86F"/>
	</linearGradient>
	<path class="st26" d="M324.9,247.7c-0.8,1.6-1.5,2.4-2.2,2.4c-0.9,0-1.4-0.7-1.4-2.2c0-1.5,0.7-4.4,2.1-8.6h-0.2
		c-2.1,3.5-3.1,6.7-3.1,9.5v1.4c0,1.9,0.6,2.8,1.9,2.8h0.4c1.2,0,2.1-1.7,2.7-5l-0.2-0.2H324.9z"/>
</g>
</svg>
